<svg width="109" height="48" viewBox="0 0 109 48" fill="none" xmlns="http://www.w3.org/2000/svg">
<path d="M67.5815 16.9469C58.1464 26.2732 48.0218 36.289 45.0824 39.1558C42.143 42.0226 39.5665 44.8169 39.3487 45.3975C38.7318 46.8491 39.0221 47.6837 40.1834 47.8289C41.0543 47.9377 43.5945 45.5427 62.6099 26.7813C82.8955 6.74975 86.8873 2.54023 86.8873 1.08867C86.8873 0.544334 85.98 0.0362892 85.0002 0C84.8551 0 77.0167 7.62068 67.5815 16.9469Z" fill="white"/>
<path d="M46.0259 1.08873C43.2679 1.59678 38.5504 3.12091 34.2683 4.97165C29.7684 6.85867 23.0187 10.415 23.0187 10.8867C23.0187 11.2859 25.9944 11.7577 27.2645 11.5037C27.8451 11.4311 30.7845 10.161 33.8328 8.7457C41.018 5.33454 45.0098 4.28216 50.5983 4.20958C54.5538 4.17329 54.8804 4.24587 56.9489 5.26196C60.9407 7.25785 61.739 9.90695 59.598 14.189C58.6907 16.0035 57.2392 17.7454 52.7394 22.3178L47.042 28.0877L45.6267 27.4345C43.4857 26.3821 39.6028 26.2733 37.0625 27.1442C32.3812 28.8135 26.1033 34.3294 23.9985 38.6115C20.4785 45.7967 24.6154 50.2603 31.6192 46.8128C33.6876 45.7967 35.7198 43.9823 46.3888 33.5311C53.2111 26.8539 59.4528 20.5396 60.3237 19.4872C66.1663 12.3746 65.5131 5.47969 58.6907 2.10482C56.3683 0.979862 56.0054 0.907284 52.0499 0.834705C49.7637 0.798416 47.042 0.907284 46.0259 1.08873ZM43.9211 29.9022C44.5743 30.4102 44.284 30.7731 38.8044 36.289C32.7078 42.4219 30.6031 44.1274 28.5709 44.4903C24.7243 45.2161 25.8855 40.0994 30.712 35.1278C34.8489 30.882 41.5986 28.1966 43.9211 29.9022Z" fill="white"/>
<path d="M11.1885 27.5797C8.53943 28.8861 0.773589 34.148 0.7373 34.6561C0.701011 34.8375 1.46308 35.0552 2.3703 35.1278C3.74928 35.2004 4.40249 35.0189 5.81776 34.148C7.52334 33.0593 8.50314 32.7327 8.50314 33.2771C8.50314 33.4585 7.16045 35.2004 5.56373 37.1963C1.17277 42.6759 -0.31508 45.6153 0.555855 47.212C0.882456 47.8652 1.17277 47.9741 2.44288 47.7927C4.58393 47.5023 9.9547 44.6718 13.6562 41.9138C16.5956 39.7002 17.9383 39.0833 17.9383 39.918C17.9383 40.1357 17.5028 41.1155 16.9948 42.1316C15.7972 44.5267 15.9061 45.579 17.3576 45.4339C17.9383 45.3613 19.0269 44.9984 19.7164 44.6355C20.8414 44.0549 20.914 43.946 20.1882 43.9097C18.3737 43.8734 18.7729 42.2404 21.6397 37.8495C23.926 34.3657 24.9058 32.3698 24.6154 31.8981C24.2888 31.3538 22.4744 31.7529 21.0591 32.6239C20.4422 33.023 17.4302 35.3093 14.3457 37.7043C8.14025 42.4945 5.38229 44.2 4.80166 43.6194C4.32991 43.1477 4.98311 42.2042 9.70068 36.5431C14.636 30.5554 15.9424 28.5232 15.7972 26.9265C15.7246 26.1281 13.4022 26.4547 11.1885 27.5797Z" fill="white"/>
<path d="M66.9284 27.0717C65.8397 27.362 64.7147 27.87 64.497 28.1966C63.9527 28.9224 63.9164 29.0313 64.3518 29.7208C64.6421 30.1925 65.0776 30.1562 67.5453 29.5756C72.7346 28.3055 77.0167 28.8498 77.6336 30.882C77.7788 31.2812 77.815 31.7167 77.7062 31.7892C77.6336 31.8981 76.1095 32.1158 74.3313 32.2973C66.9646 33.0956 59.7431 35.7084 55.0981 39.1922C51.8684 41.6236 50.8161 45.2162 52.8119 47.0306C54.5538 48.6273 60.2512 47.8653 66.8195 45.2162C71.7185 43.184 74.8031 41.1881 78.3231 37.6681L81.5165 34.4383L83.585 34.6198C84.7099 34.7286 86.9962 34.9101 88.7017 35.019C92.8024 35.3093 98.7901 36.3617 104.125 37.7043C106.556 38.3213 108.588 38.6841 108.77 38.5027C108.951 38.3213 107.899 37.7043 106.411 37.0874C100.931 34.8375 94.0362 33.1319 87.0687 32.2973C81.2262 31.6078 80.9722 31.5352 80.6456 30.2651C80.2464 28.741 78.8674 27.4346 77.1618 26.9265C75.2022 26.3459 69.3597 26.4185 66.9284 27.0717ZM76.6538 35.273C76.3635 36.1439 71.8637 39.5188 69.0694 40.9703C63.6623 43.8009 57.3844 45.3613 55.6788 44.2726C55.207 43.9823 55.207 43.7646 55.8239 42.6396C57.2392 40.0268 62.3559 37.5592 70.3758 35.5996C73.8233 34.7649 76.8715 34.6198 76.6538 35.273Z" fill="white"/>
<path d="M85.218 43.8733C83.9479 44.4177 83.8753 44.962 84.964 45.3975C86.0889 45.8329 90.0807 45.5789 90.6614 44.9983C91.4234 44.2362 86.7059 43.2564 85.218 43.8733Z" fill="white"/>
</svg>
